<svg width="15" height="15" viewBox="0 0 15 15" fill="none" xmlns="http://www.w3.org/2000/svg">
<path fill-rule="evenodd" clip-rule="evenodd" d="M7.54309 13.4287C8.20019 13.4287 8.97747 12.9792 9.64782 11.8619C9.84389 11.5352 10.0207 11.1653 10.1723 10.759H4.91387C5.0655 11.1653 5.24231 11.5352 5.43835 11.8619C6.10869 12.9792 6.88598 13.4287 7.54309 13.4287ZM4.59513 9.69107C4.43185 8.98335 4.33942 8.20365 4.33942 7.37731C4.33942 6.55098 4.43185 5.77129 4.59513 5.06356H10.491C10.6543 5.77129 10.7468 6.55098 10.7468 7.37731C10.7468 8.20365 10.6543 8.98335 10.491 9.69107H4.59513ZM11.3029 10.759C11.0593 11.5099 10.737 12.1796 10.3545 12.7373C11.244 12.2698 12.0029 11.5874 12.5622 10.759H11.3029ZM13.1363 9.69107H11.584C11.7335 8.96562 11.8146 8.18727 11.8146 7.37731C11.8146 6.56736 11.7335 5.78898 11.584 5.06356H13.1363C13.4316 5.77635 13.5945 6.55782 13.5945 7.37731C13.5945 8.19681 13.4316 8.97829 13.1363 9.69107ZM3.50219 9.69107H1.94981C1.65462 8.97829 1.49172 8.19681 1.49172 7.37731C1.49172 6.55782 1.65462 5.77635 1.94981 5.06356H3.50219C3.35269 5.78898 3.27153 6.56736 3.27153 7.37731C3.27153 8.18727 3.35269 8.96562 3.50219 9.69107ZM2.52403 10.759H3.78324C4.02691 11.5099 4.34919 12.1796 4.73171 12.7373C3.84217 12.2698 3.08326 11.5874 2.52403 10.759ZM4.91387 3.99567H10.1723C10.0207 3.58939 9.84389 3.21938 9.64782 2.89267C8.97747 1.77543 8.20019 1.32595 7.54309 1.32595C6.88598 1.32595 6.10869 1.77543 5.43835 2.89267C5.24231 3.21938 5.0655 3.58939 4.91387 3.99567ZM11.3029 3.99567H12.5622C12.0029 3.16728 11.244 2.4848 10.3545 2.01727C10.737 2.57504 11.0593 3.24473 11.3029 3.99567ZM4.73171 2.01727C4.34919 2.57505 4.0269 3.24473 3.78324 3.99567H2.52402C3.08326 3.16728 3.84217 2.4848 4.73171 2.01727ZM7.54309 0.258057C11.4749 0.258057 14.6623 3.44546 14.6623 7.37731C14.6623 11.3091 11.4749 14.4966 7.54309 14.4966C3.61123 14.4966 0.423828 11.3091 0.423828 7.37731C0.423828 3.44546 3.61123 0.258057 7.54309 0.258057Z" fill="#212121"/>
</svg>
