<svg width="119" height="34" viewBox="0 0 119 34" fill="none" xmlns="http://www.w3.org/2000/svg">
<g clip-path="url(#clip0_1071_1380)">
<path fill-rule="evenodd" clip-rule="evenodd" d="M118.335 19.8616C118.322 19.7282 118.291 19.5971 118.241 19.4724C117.927 18.6547 116.496 19.4171 116.007 19.622C115.127 19.9908 114.121 20.477 113.147 20.1982C112.878 20.1209 112.957 19.8914 113.147 19.7741C113.242 19.7163 115.743 18.3011 116.48 15.1649C117.657 10.1476 114.043 8.75202 112.617 8.58288C111.167 8.4112 109.549 8.63473 108.868 8.90926C106.936 9.68526 106.432 11.4106 106.298 12.4442C106.116 13.8653 106.094 16.3454 105.919 17.4614C105.803 18.1966 105.256 19.3126 104.178 19.2063C102.098 19.0015 101.143 18.2034 101.209 16.8928C101.255 15.9714 101.242 15.7879 101.532 13.7446C101.781 11.9937 101.938 11.5764 101.938 11.1761C101.938 10.0295 100.398 9.7983 99.8825 10.3142C99.4847 10.7128 99.3853 11.5262 99.2858 12.8997C99.1924 14.1908 98.9943 15.8703 98.7385 16.8945C98.3407 18.4898 98.181 18.6063 97.818 19.0627C97.0642 20.0112 95.6712 19.7172 94.9912 19.0703C94.5918 18.6896 94.5374 18.3521 94.6147 17.2345C94.6921 16.1168 94.8748 14.1696 95.1315 12.1391C95.355 10.3627 95.2012 10.0958 94.6555 9.59772C94.1481 9.13365 92.2044 9.20249 91.3043 9.20249C89.9113 9.20249 89.9946 9.86545 89.9028 12.1263C89.8629 13.1131 89.817 14.6107 89.7184 15.77C89.5586 17.6569 85.9576 19.0763 84.3019 18.9913C82.586 18.9029 82.4211 15.6995 82.3131 14.9541C82.2035 14.2095 82.1602 7.78054 82.3454 7.5621C82.4772 7.40911 83.5098 7.29182 84.6869 7.06148C87.2936 6.55152 87.6684 6.21664 87.6718 5.40069C87.6735 5.00037 87.648 4.44026 87.2044 4.28982C86.9443 4.20142 86.2695 4.10113 85.3745 3.99574C82.7933 3.69146 82.4296 3.78495 82.4151 3.45772C82.3905 2.88486 82.4449 1.78248 82.399 1.34816C82.2868 0.28063 81.0357 -0.0780464 79.6266 0.0154474C79.3487 0.0332963 78.9636 0.12339 78.9331 0.495666C78.9025 0.868791 78.905 1.15607 78.86 1.78758C78.7605 3.19084 78.7325 3.34298 78.1885 3.34043C77.7041 3.33788 73.6738 2.98175 72.8995 3.22994C72.1244 3.47812 72.1559 4.00593 72.0938 4.27027C72.0318 4.53375 72.1703 6.1172 72.2485 6.80055C72.3259 7.48306 72.4754 8.41205 72.5681 8.55144C72.6616 8.69168 72.9522 9.08775 73.7614 8.98661C76.51 8.64238 78.3432 8.22676 78.7155 8.13411C79.0869 8.04062 79.1294 7.99387 79.1336 8.2888C79.1353 8.45624 79.205 11.8127 79.2169 12.8097C79.2365 14.5146 79.5246 19.4537 74.93 20.2195C73.0185 20.5382 71.2269 19.9815 70.4119 19.0831C69.9495 18.5731 70.1764 18.5068 70.3804 18.1754C70.6898 17.6713 73.2718 14.6379 71.1079 11.4914C69.8322 9.63512 66.7725 9.48808 65.6617 9.96999C64.8008 10.3431 64.1047 11.4999 63.9704 12.9108C63.5556 17.2625 66.0459 19.9543 66.1428 20.12C66.2583 20.3189 65.8232 20.9598 64.3019 21.1825C62.2621 21.4816 59.1302 19.021 59.2109 18.7006C59.2508 18.5476 60.6379 16.2757 60.671 14.0803C60.6821 13.3332 60.4356 12.3498 59.9248 11.3563C59.4132 10.3627 57.8034 8.82937 56.0611 9.16595C51.9612 9.95639 52.4286 14.0072 52.7125 15.113C53.3023 17.3994 54.6834 19.4171 54.9087 19.8208C55.2155 20.3691 46.2336 23.9337 45.886 20.5968C45.5401 17.2889 50.4509 10.1561 50.0642 7.38871C49.7157 4.89583 48.0397 4.37396 46.5821 4.34846C45.1653 4.32296 44.7913 4.54905 44.312 4.82783C44.0358 4.98847 43.6388 5.30635 43.0881 4.78108C42.7218 4.43176 42.4796 4.18697 42.092 3.87674C41.8957 3.7195 41.5812 3.51977 41.0543 3.44242C40.5273 3.36508 39.8457 3.44242 39.4122 3.62856C38.9788 3.81555 38.6371 4.14108 38.281 4.45131C37.9241 4.76154 37.0206 5.77637 36.1783 5.40239C35.8129 5.24005 34.5746 4.62044 33.6822 4.23372C31.9577 3.48577 29.4709 4.69694 28.5759 6.29143C27.2424 8.66448 24.6119 17.9867 24.2142 19.2157C23.3201 21.9763 25.3445 24.227 28.077 24.0978C29.2312 24.0425 30.0003 23.6201 30.7296 22.2908C31.1511 21.5233 35.1117 11.1591 35.4058 10.6627C35.6199 10.3015 36.3322 9.82635 36.9356 10.1357C37.5407 10.4468 37.6606 11.0945 37.5713 11.7039C37.4269 12.6898 34.6341 19.0134 34.527 19.7282C34.3442 20.9453 34.9213 21.6219 36.1817 21.6882C37.0452 21.7332 37.9062 21.4221 38.5895 20.1311C38.972 19.4095 43.3754 10.5709 43.7655 9.98104C44.1938 9.33338 44.5389 9.12005 44.9741 9.143C45.3132 9.16 45.8546 9.24754 45.7186 10.2641C45.586 11.2602 42.0453 17.7461 41.673 19.3338C41.1095 21.7426 42.6513 24.9826 46.781 25.1313C48.8326 25.2061 53.5819 24.3102 56.2575 22.278C57.2289 21.5403 56.9722 21.4765 57.5774 22.0137C58.4485 22.7863 60.0651 23.8742 61.6569 23.8742C65.2716 23.8742 67.9114 21.6134 68.0313 21.5318C68.0501 21.5189 68.0729 21.5132 68.0956 21.5159C68.1182 21.5186 68.1392 21.5293 68.1545 21.5462C68.3738 21.7842 70.615 23.0345 72.1856 23.0863C75.9244 23.2096 78.1384 21.1315 78.9747 20.1532C79.4346 19.615 79.8637 19.0511 80.2598 18.4643C80.2711 18.4476 80.286 18.4337 80.3035 18.4236C80.3209 18.4134 80.3405 18.4074 80.3606 18.406C80.3807 18.4045 80.4009 18.4076 80.4197 18.4151C80.4384 18.4225 80.4552 18.4341 80.4688 18.449C80.6924 18.6955 82.3786 21.7995 85.7281 21.3711C87.5962 21.1323 90.3745 19.5531 90.5692 19.3398C90.5791 19.3286 90.5918 19.3201 90.606 19.3154C90.6202 19.3107 90.6354 19.3097 90.65 19.3128C90.6647 19.3158 90.6783 19.3226 90.6895 19.3326C90.7006 19.3426 90.709 19.3553 90.7137 19.3695C90.8114 19.6398 91.2389 21.1629 92.9515 22.3741C94.3555 23.3677 97.0582 23.5665 98.2574 22.9061C99.2518 22.3588 99.6505 22.0086 100.347 21.3116C100.646 21.0116 101.101 20.7082 101.922 20.8824C102.84 21.0771 105.266 21.5071 105.42 21.5811C105.595 21.6635 105.622 21.9806 105.57 22.312C105.487 22.8339 105.29 24.663 105.089 26.3705C104.888 28.0781 104.244 33.7752 105.769 33.986C106.69 34.1135 107.49 33.2398 107.702 32.3873C108.232 30.248 108.329 27.8401 108.677 25.7747C109.094 23.3158 109.259 22.6265 109.408 22.352C109.532 22.1242 109.532 22.1777 111.25 22.3239C112.44 22.4259 113.405 22.5917 114.839 22.3911C116.027 22.2245 118.466 21.3235 118.335 19.8616ZM58.9287 14.3353C58.8718 15.1402 58.6653 15.6502 58.2394 16.3913C57.9734 16.8537 57.6981 16.5078 57.5383 16.2791C57.3088 15.951 56.1359 13.0969 57.0317 12.5079C57.2842 12.3422 57.7847 12.247 58.1468 12.4501C58.5089 12.6524 58.7273 12.9473 58.8267 13.2763C58.9287 13.6103 58.9661 13.7973 58.9287 14.3353ZM70.0557 14.7501C69.9512 15.6765 69.5585 16.2009 69.4141 16.3956C69.1582 16.7389 69.0554 16.8741 68.8106 16.6251C68.6117 16.4228 67.8681 14.9082 67.761 13.9095C67.7023 13.3723 67.8511 12.6048 68.3015 12.4246C68.7758 12.2351 69.256 12.3209 69.5934 12.7621C70.1229 13.4565 70.1305 14.0914 70.0557 14.7501ZM110.436 18.8103C109.877 19.0397 109.634 18.8995 109.667 17.9756C109.673 17.7767 110.57 13.142 112.284 12.3022C112.771 12.0643 113.263 12.0745 113.605 12.4552C114.251 13.1751 114.081 14.2843 113.595 15.2957C112.891 16.7636 111.203 18.4949 110.436 18.8103Z" fill="#F64060"/>
</g>
<defs>
<clipPath id="clip0_1071_1380">
<rect width="94.34" height="34" fill="white" transform="translate(24)"/>
</clipPath>
</defs>
</svg>
