<svg width="95" height="34" viewBox="0 0 95 34" fill="none" xmlns="http://www.w3.org/2000/svg">
<g clip-path="url(#clip0_1071_1380)">
<path fill-rule="evenodd" clip-rule="evenodd" d="M94.3349 19.8616C94.3221 19.7282 94.2906 19.5971 94.2414 19.4724C93.9269 18.6547 92.4957 19.4171 92.007 19.622C91.1273 19.9908 90.121 20.477 89.147 20.1982C88.8776 20.1209 88.9566 19.8914 89.147 19.7741C89.2422 19.7163 91.7435 18.3011 92.4795 15.1649C93.6575 10.1476 90.0428 8.75202 88.6167 8.58288C87.1667 8.4112 85.5494 8.63473 84.8677 8.90926C82.9359 9.68526 82.4319 11.4106 82.2984 12.4442C82.1157 13.8653 82.0945 16.3454 81.9185 17.4614C81.8029 18.1966 81.2556 19.3126 80.1779 19.2063C78.0982 19.0015 77.1429 18.2034 77.2092 16.8928C77.2551 15.9714 77.2423 15.7879 77.5322 13.7446C77.7812 11.9937 77.9384 11.5764 77.9384 11.1761C77.9384 10.0295 76.3975 9.7983 75.8825 10.3142C75.4847 10.7128 75.3853 11.5262 75.2858 12.8997C75.1924 14.1908 74.9943 15.8703 74.7385 16.8945C74.3407 18.4898 74.181 18.6063 73.818 19.0627C73.0642 20.0112 71.6712 19.7172 70.9912 19.0703C70.5918 18.6896 70.5374 18.3521 70.6147 17.2345C70.6921 16.1168 70.8748 14.1696 71.1315 12.1391C71.355 10.3627 71.2012 10.0958 70.6555 9.59772C70.1481 9.13365 68.2044 9.20249 67.3043 9.20249C65.9113 9.20249 65.9946 9.86545 65.9028 12.1263C65.8629 13.1131 65.817 14.6107 65.7184 15.77C65.5586 17.6569 61.9576 19.0763 60.3019 18.9913C58.586 18.9029 58.4211 15.6995 58.3131 14.9541C58.2035 14.2095 58.1602 7.78054 58.3454 7.5621C58.4772 7.40911 59.5098 7.29182 60.6869 7.06148C63.2936 6.55152 63.6684 6.21664 63.6718 5.40069C63.6735 5.00037 63.648 4.44026 63.2044 4.28982C62.9443 4.20142 62.2695 4.10113 61.3745 3.99574C58.7933 3.69146 58.4296 3.78495 58.4151 3.45772C58.3905 2.88486 58.4449 1.78248 58.399 1.34816C58.2868 0.28063 57.0357 -0.0780464 55.6266 0.0154474C55.3487 0.0332963 54.9636 0.12339 54.9331 0.495666C54.9025 0.868791 54.905 1.15607 54.86 1.78758C54.7605 3.19084 54.7325 3.34298 54.1885 3.34043C53.7041 3.33788 49.6738 2.98175 48.8995 3.22994C48.1244 3.47812 48.1559 4.00593 48.0938 4.27027C48.0318 4.53375 48.1703 6.1172 48.2485 6.80055C48.3259 7.48306 48.4754 8.41205 48.5681 8.55144C48.6616 8.69168 48.9522 9.08775 49.7614 8.98661C52.51 8.64238 54.3432 8.22676 54.7155 8.13411C55.0869 8.04062 55.1294 7.99387 55.1336 8.2888C55.1353 8.45624 55.205 11.8127 55.2169 12.8097C55.2365 14.5146 55.5246 19.4537 50.93 20.2195C49.0185 20.5382 47.2269 19.9815 46.4119 19.0831C45.9495 18.5731 46.1764 18.5068 46.3804 18.1754C46.6898 17.6713 49.2718 14.6379 47.1079 11.4914C45.8322 9.63512 42.7725 9.48808 41.6617 9.96999C40.8008 10.3431 40.1047 11.4999 39.9704 12.9108C39.5556 17.2625 42.0459 19.9543 42.1428 20.12C42.2583 20.3189 41.8232 20.9598 40.3019 21.1825C38.2621 21.4816 35.1302 19.021 35.2109 18.7006C35.2508 18.5476 36.6379 16.2757 36.671 14.0803C36.6821 13.3332 36.4356 12.3498 35.9248 11.3563C35.4132 10.3627 33.8034 8.82937 32.0611 9.16595C27.9612 9.95639 28.4286 14.0072 28.7125 15.113C29.3023 17.3994 30.6834 19.4171 30.9087 19.8208C31.2155 20.3691 22.2336 23.9337 21.886 20.5968C21.5401 17.2889 26.4509 10.1561 26.0642 7.38871C25.7157 4.89583 24.0397 4.37396 22.5821 4.34846C21.1653 4.32296 20.7913 4.54905 20.312 4.82783C20.0358 4.98847 19.6388 5.30635 19.0881 4.78108C18.7218 4.43176 18.4796 4.18697 18.092 3.87674C17.8957 3.7195 17.5812 3.51977 17.0543 3.44242C16.5273 3.36508 15.8457 3.44242 15.4122 3.62856C14.9788 3.81555 14.6371 4.14108 14.281 4.45131C13.9241 4.76154 13.0206 5.77637 12.1783 5.40239C11.8129 5.24005 10.5746 4.62044 9.68215 4.23372C7.95769 3.48577 5.47085 4.69694 4.5759 6.29143C3.24239 8.66448 0.611917 17.9867 0.21416 19.2157C-0.679946 21.9763 1.34454 24.227 4.077 24.0978C5.23118 24.0425 6.00035 23.6201 6.72957 22.2908C7.15112 21.5233 11.1117 11.1591 11.4058 10.6627C11.6199 10.3015 12.3322 9.82635 12.9356 10.1357C13.5407 10.4468 13.6606 11.0945 13.5713 11.7039C13.4269 12.6898 10.6341 19.0134 10.527 19.7282C10.3442 20.9453 10.9213 21.6219 12.1817 21.6882C13.0452 21.7332 13.9062 21.4221 14.5895 20.1311C14.972 19.4095 19.3754 10.5709 19.7655 9.98104C20.1938 9.33338 20.5389 9.12005 20.9741 9.143C21.3132 9.16 21.8546 9.24754 21.7186 10.2641C21.586 11.2602 18.0453 17.7461 17.673 19.3338C17.1095 21.7426 18.6513 24.9826 22.781 25.1313C24.8326 25.2061 29.5819 24.3102 32.2575 22.278C33.2289 21.5403 32.9722 21.4765 33.5774 22.0137C34.4485 22.7863 36.0651 23.8742 37.6569 23.8742C41.2716 23.8742 43.9114 21.6134 44.0313 21.5318C44.0501 21.5189 44.0729 21.5132 44.0956 21.5159C44.1182 21.5186 44.1392 21.5293 44.1545 21.5462C44.3738 21.7842 46.615 23.0345 48.1856 23.0863C51.9244 23.2096 54.1384 21.1315 54.9747 20.1532C55.4346 19.615 55.8637 19.0511 56.2598 18.4643C56.2711 18.4476 56.286 18.4337 56.3035 18.4236C56.3209 18.4134 56.3405 18.4074 56.3606 18.406C56.3807 18.4045 56.4009 18.4076 56.4197 18.4151C56.4384 18.4225 56.4552 18.4341 56.4688 18.449C56.6924 18.6955 58.3786 21.7995 61.7281 21.3711C63.5962 21.1323 66.3745 19.5531 66.5692 19.3398C66.5791 19.3286 66.5918 19.3201 66.606 19.3154C66.6202 19.3107 66.6354 19.3097 66.65 19.3128C66.6647 19.3158 66.6783 19.3226 66.6895 19.3326C66.7006 19.3426 66.709 19.3553 66.7137 19.3695C66.8114 19.6398 67.2389 21.1629 68.9515 22.3741C70.3555 23.3677 73.0582 23.5665 74.2574 22.9061C75.2518 22.3588 75.6505 22.0086 76.3465 21.3116C76.6457 21.0116 77.1012 20.7082 77.9223 20.8824C78.8402 21.0771 81.2658 21.5071 81.4205 21.5811C81.5947 21.6635 81.6219 21.9806 81.5701 22.312C81.4868 22.8339 81.2896 24.663 81.089 26.3705C80.8876 28.0781 80.2442 33.7752 81.769 33.986C82.6903 34.1135 83.49 33.2398 83.7016 32.3873C84.232 30.248 84.3289 27.8401 84.6773 25.7747C85.0938 23.3158 85.2587 22.6265 85.4083 22.352C85.5323 22.1242 85.5323 22.1777 87.25 22.3239C88.4399 22.4259 89.4054 22.5917 90.8392 22.3911C92.0274 22.2245 94.4658 21.3235 94.3349 19.8616ZM34.9287 14.3353C34.8718 15.1402 34.6653 15.6502 34.2394 16.3913C33.9734 16.8537 33.6981 16.5078 33.5383 16.2791C33.3088 15.951 32.1359 13.0969 33.0317 12.5079C33.2842 12.3422 33.7847 12.247 34.1468 12.4501C34.5089 12.6524 34.7273 12.9473 34.8267 13.2763C34.9287 13.6103 34.9661 13.7973 34.9287 14.3353ZM46.0557 14.7501C45.9512 15.6765 45.5585 16.2009 45.4141 16.3956C45.1582 16.7389 45.0554 16.8741 44.8106 16.6251C44.6117 16.4228 43.8681 14.9082 43.761 13.9095C43.7023 13.3723 43.8511 12.6048 44.3015 12.4246C44.7758 12.2351 45.256 12.3209 45.5934 12.7621C46.1229 13.4565 46.1305 14.0914 46.0557 14.7501ZM86.4358 18.8103C85.8774 19.0397 85.6343 18.8995 85.6666 17.9756C85.6734 17.7767 86.5701 13.142 88.2844 12.3022C88.7705 12.0643 89.2635 12.0745 89.6051 12.4552C90.2511 13.1751 90.0811 14.2843 89.5949 15.2957C88.8912 16.7636 87.2033 18.4949 86.4358 18.8103Z" fill="#F64060"/>
</g>
<defs>
<clipPath id="clip0_1071_1380">
<rect width="94.34" height="34" fill="white"/>
</clipPath>
</defs>
</svg>
